<?xml version="1.0" standalone="no"?>
<!DOCTYPE svg PUBLIC "-//W3C//DTD SVG 20010904//EN"
 "http://www.w3.org/TR/2001/REC-SVG-20010904/DTD/svg10.dtd">
<svg version="1.0" xmlns="http://www.w3.org/2000/svg"
 width="222.000000pt" height="222.000000pt" viewBox="0 0 222.000000 222.000000"
 preserveAspectRatio="xMidYMid meet">
<metadata>
Created by potrace 1.11, written by Peter Selinger 2001-2013
</metadata>
<g transform="translate(0.000000,222.000000) scale(0.100000,-0.100000)"
fill="#000000" stroke="none">
<path d="M406 2199 c-185 -64 -328 -265 -379 -534 -21 -109 -25 -1610 -5
-1638 7 -10 25 -20 41 -22 22 -5 36 3 78 42 l50 47 32 -36 c34 -38 65 -58 91
-58 8 0 36 21 61 46 l45 46 50 -46 c27 -25 54 -46 59 -46 25 0 63 23 96 57
l35 38 38 -43 c27 -31 47 -44 72 -47 30 -4 40 1 77 40 23 25 45 45 47 45 3 0
22 -18 43 -41 24 -25 50 -42 69 -45 27 -4 37 2 77 43 l47 48 46 -48 c58 -59
95 -62 121 -12 7 13 11 137 11 333 0 172 2 316 6 319 3 3 106 7 228 8 183 2
232 5 272 20 180 63 315 251 372 515 19 86 27 377 12 445 -53 257 -163 427
-325 507 l-68 33 -670 2 c-653 3 -671 2 -729 -18z"/>
</g>
</svg>
